<?xml version="1.0" standalone="no"?>
<!DOCTYPE svg PUBLIC "-//W3C//DTD SVG 20010904//EN"
 "http://www.w3.org/TR/2001/REC-SVG-20010904/DTD/svg10.dtd">
<svg version="1.0" xmlns="http://www.w3.org/2000/svg"
 width="512.000000pt" height="512.000000pt" viewBox="0 0 512.000000 512.000000"
 preserveAspectRatio="xMidYMid meet">
<metadata>
Created by potrace 1.11, written by Peter Selinger 2001-2013
</metadata>
<g transform="translate(0.000000,512.000000) scale(0.100000,-0.100000)"
fill="#000000" stroke="none">
<path d="M3506 3954 c-476 -80 -789 -412 -762 -809 13 -192 75 -325 216 -464
149 -147 350 -248 745 -374 291 -93 409 -161 463 -267 27 -54 24 -221 -5 -275
-63 -117 -198 -175 -408 -175 -120 0 -222 21 -312 65 -125 61 -187 158 -206
323 l-11 92 -284 0 -285 0 6 -102 c6 -129 25 -199 83 -315 129 -259 424 -450
784 -508 202 -32 501 -13 679 45 227 73 415 228 500 414 47 103 64 200 58 336
-3 69 -12 148 -20 177 -72 255 -276 447 -627 587 -105 42 -128 50 -280 96
-281 86 -448 178 -497 274 -41 79 -23 236 36 307 84 101 298 152 487 115 146
-27 233 -87 286 -194 28 -57 34 -79 36 -154 l4 -88 290 0 291 0 -6 94 c-18
300 -192 557 -472 696 -185 91 -324 121 -559 119 -83 -1 -187 -7 -230 -15z"/>
<path d="M350 3700 l0 -230 410 0 410 0 2 -1152 3 -1153 285 0 285 0 0 1090
c0 600 1 1118 3 1153 l2 62 415 0 415 0 0 230 0 230 -1115 0 -1115 0 0 -230z"/>
</g>
</svg>
