<svg viewBox="0 0 16 16" xmlns="http://www.w3.org/2000/svg" fill-rule="evenodd" clip-rule="evenodd" stroke-linejoin="round" stroke-miterlimit="1.414"><path d="M14.236 12.472a1.764 1.764 0 110 3.529 1.764 1.764 0 010-3.529zM8 6.236a1.765 1.765 0 010 3.528 1.765 1.765 0 010-3.528zm6.236 0a1.764 1.764 0 110 3.529 1.764 1.764 0 010-3.529zM8 0a1.765 1.765 0 010 3.528A1.765 1.765 0 018 0zM1.764 0a1.765 1.765 0 11-.002 3.53A1.765 1.765 0 011.764 0zm12.472 0a1.764 1.764 0 110 3.529 1.764 1.764 0 010-3.529z"/></svg>