<svg viewBox="0 0 16 16" xmlns="http://www.w3.org/2000/svg" fill-rule="evenodd" clip-rule="evenodd" stroke-linejoin="round" stroke-miterlimit="1.414"><path d="M8.016 0a5.305 5.305 0 012.656.72 5.28 5.28 0 012.655-.705V16c-5.882-.017-10.67-4.77-10.654-10.657V.015A5.273 5.273 0 015.328.72 5.275 5.275 0 017.993 0h.023zm2.278 1.942a2.285 2.285 0 00-2.28 2.075l-.01-.014-.01.014a2.288 2.288 0 00-2.27-2.09 2.286 2.286 0 00-.012 4.57c.45.003.866-.127 1.22-.35l1.062 1.068 1.07-1.062a2.282 2.282 0 101.23-4.209zm-.01 3.808a1.526 1.526 0 01-1.45-1.978c.118.265.383.45.693.452A.76.76 0 009.84 2.77a1.526 1.526 0 011.972 1.461 1.525 1.525 0 01-1.528 1.52zm-4.57-.013a1.526 1.526 0 01-1.52-1.528 1.526 1.526 0 011.98-1.45.758.758 0 00-.453.692.76.76 0 001.455.314 1.527 1.527 0 01-1.461 1.972z"/></svg>