<svg viewBox="0 0 16 16" xmlns="http://www.w3.org/2000/svg" fill-rule="evenodd" clip-rule="evenodd" stroke-linejoin="round" stroke-miterlimit="1.414"><g fill-rule="nonzero"><path d="M14.634 12.716a.538.538 0 01-.447-.83 4.41 4.41 0 00.75-2.48 4.41 4.41 0 00-.75-2.48.533.533 0 01.882-.595c.612.91.932 1.973.932 3.076s-.32 2.167-.932 3.076a.507.507 0 01-.434.234z"/><path d="M13.108 11.853a.53.53 0 01-.298-.092.527.527 0 01-.143-.736 2.875 2.875 0 000-3.236.528.528 0 01.143-.737.529.529 0 01.738.144c.446.657.68 1.423.68 2.212a3.9 3.9 0 01-.68 2.212.517.517 0 01-.44.235zM10.62 7.085a4.22 4.22 0 00-4.2-3.8A4.232 4.232 0 002.423 6.14 2.842 2.842 0 000 8.942a2.843 2.843 0 002.84 2.836h7.272a2.378 2.378 0 002.378-2.372c0-1.137-.8-2.086-1.87-2.32zm-.508 3.63h-7.27a1.78 1.78 0 01-1.78-1.772c0-.977.796-1.772 1.78-1.772.473 0 .92.184 1.257.52a.534.534 0 00.753 0 .536.536 0 000-.753 2.828 2.828 0 00-1.31-.743 3.167 3.167 0 012.876-1.852 3.162 3.162 0 013.16 3.155c0 .337-.05.67-.16.99a.535.535 0 00.504.703.534.534 0 00.503-.367c.068-.21.12-.423.154-.64a1.309 1.309 0 01-.468 2.533z"/></g></svg>