<svg viewBox="0 0 16 16" xmlns="http://www.w3.org/2000/svg" fill-rule="evenodd" clip-rule="evenodd" stroke-linejoin="round" stroke-miterlimit="1.414"><path d="M8 16s1.75 0 1.75-5.18c0-.965-.784-1.75-1.75-1.75s-1.75.785-1.75 1.75C6.25 16 8 16 8 16zm2.147-1.766c.077-.296.136-.595.183-.897l.035-.24a6.32 6.32 0 003.12-2.753 6.257 6.257 0 00.238-5.615 6.28 6.28 0 00-3.196-3.158 6.274 6.274 0 00-4.72-.116 6.297 6.297 0 00-1.983 1.218 6.33 6.33 0 00-1.365 1.782 6.32 6.32 0 00-.6 1.815 6.275 6.275 0 00.5 3.67 6.308 6.308 0 003.276 3.136c.01.087.024.174.037.26.047.297.104.59.18.88a6.782 6.782 0 01-.808-.307 7.313 7.313 0 01-3.392-3.155 7.218 7.218 0 01-.728-1.995 7.256 7.256 0 01.53-4.522 7.27 7.27 0 011.51-2.125A7.275 7.275 0 015.2.62 7.307 7.307 0 017.933.05c.938-.01 1.877.16 2.75.503a7.272 7.272 0 014.508 5.643 7.232 7.232 0 01-.67 4.324 7.31 7.31 0 01-3.274 3.276 7.348 7.348 0 01-1.1.438zm.346-2.854l.006-.312c0-.21.003-.42-.03-.627a1.88 1.88 0 00-.047-.235 3.79 3.79 0 00.916-1.11 3.78 3.78 0 00.121-3.345 3.815 3.815 0 00-.77-1.115 3.783 3.783 0 00-2.568-1.103 3.784 3.784 0 00-1.48.26 3.766 3.766 0 00-1.15.72 3.764 3.764 0 00-1.178 2.121 3.803 3.803 0 00.274 2.217c.23.508.574.96.998 1.322a2.394 2.394 0 00-.057.27c-.033.207-.03.415-.03.626l.006.28A4.802 4.802 0 013.83 9.574a4.727 4.727 0 01-.538-2.88c.06-.467.19-.926.383-1.355a4.791 4.791 0 012.386-2.385 4.745 4.745 0 011.84-.42 4.75 4.75 0 013.328 1.238 4.773 4.773 0 011.142 5.492 4.813 4.813 0 01-1.88 2.118zM8 5.016a1.765 1.765 0 11-.001 3.525A1.765 1.765 0 018 5.018z"/></svg>