<svg viewBox="0 0 16 16" xmlns="http://www.w3.org/2000/svg" fill-rule="evenodd" clip-rule="evenodd" stroke-linejoin="round" stroke-miterlimit="1.414"><path d="M1.837 15.955l.443-.095a44.734 44.734 0 011.05-.206c.16-.03.32-.057.48-.085l.037-.007c.166-.028.332-.056.498-.082.27-.04.54-.08.81-.118V-.045h-.028c-.42.002-.837.01-1.256.024a36.24 36.24 0 00-2.004.12l-.026.002h-.005v15.853zM5.94-.04v15.3a41 41 0 018.222-.137V.953a38.343 38.343 0 00-2.019-.405A41.423 41.423 0 008.176.06a39.723 39.723 0 00-2.236-.1zm7.177 9.868l-.03-.003-.374-.04a40.55 40.55 0 00-2.806-.194 41.94 41.94 0 00-2.815.005h-.03a.401.401 0 01-.268-.12.395.395 0 01.097-.617.375.375 0 01.115-.04c.026-.006.033-.006.06-.007.127-.005.254-.01.38-.013.926-.024 1.85-.02 2.775.02.956.038 1.91.11 2.86.216l.095.01c.03.006.06.01.088.02a.413.413 0 01.232.224.392.392 0 01-.288.533c-.026.006-.033.005-.06.008h-.03zm.024-1.808c-.03 0-.03 0-.06-.004-.124-.016-.248-.03-.373-.047a39.412 39.412 0 00-5.621-.28l-.03-.002a.393.393 0 01-.333-.225.398.398 0 01.076-.445c.03-.03.06-.053.097-.07a.36.36 0 01.114-.04c.027-.004.034-.004.06-.005l.383-.007c.925-.01 1.85.01 2.773.064.956.054 1.91.144 2.86.264l.095.012c.028.005.035.005.06.013a.394.394 0 01-.009.758c-.026.007-.033.007-.06.01l-.03.003zm-.006-1.808c-.03 0-.03 0-.06-.004l-.373-.053a40.448 40.448 0 00-5.62-.372h-.03c-.027-.004-.034-.004-.06-.01a.394.394 0 01-.002-.766c.03-.007.06-.01.09-.01h.38c.96.006 1.915.043 2.87.115.925.07 1.847.173 2.765.304l.095.014c.026.005.033.005.058.013.04.012.075.03.108.053a.38.38 0 01.146.187.397.397 0 01-.094.417.373.373 0 01-.182.1c-.026.008-.033.008-.06.01l-.03.002zm-.006-1.808c-.03 0-.03 0-.06-.005l-.374-.06a40.527 40.527 0 00-5.621-.464h-.03l-.06-.01a.413.413 0 01-.265-.225.4.4 0 01.092-.444.386.386 0 01.274-.107c.127 0 .254.004.382.006a41.649 41.649 0 015.633.511l.094.015c.026.005.033.006.058.014a.377.377 0 01.193.139.392.392 0 01-.043.52.406.406 0 01-.184.1c-.026.005-.033.004-.06.007h-.03zm-10.442-.34a.395.395 0 01-.388-.489.404.404 0 01.167-.235.433.433 0 01.16-.06l.316-.03c.434-.038.867-.07 1.3-.095h.033a.392.392 0 01.031.784c-.07.006-.14.01-.212.014-.097.006-.196.012-.294.02-.26.018-.523.04-.784.062l-.196.018c-.044.004-.087.01-.13.01zm10.436-1.468l-.06-.006-.374-.066a41.299 41.299 0 00-2.807-.377 42.596 42.596 0 00-2.813-.18h-.03c-.027-.004-.034-.005-.06-.012a.383.383 0 01-.2-.128.39.39 0 01-.038-.451.389.389 0 01.26-.187c.03-.006.06-.007.09-.008l.382.013a41.531 41.531 0 015.633.603l.095.017c.026.006.033.007.058.015a.398.398 0 01.257.456.379.379 0 01-.118.206.395.395 0 01-.185.095c-.027.006-.033.006-.06.008h-.03zM2.68 2.084a.387.387 0 01-.292-.129.41.41 0 01-.1-.225.396.396 0 01.344-.429c.105-.01.21-.016.315-.024.434-.032.867-.056 1.3-.075h.032c.062.004.123.02.178.05a.403.403 0 01.183.458.398.398 0 01-.063.125.424.424 0 01-.117.102.374.374 0 01-.163.05c-.07.005-.142.007-.213.01l-.294.015c-.262.014-.523.03-.785.05l-.196.015c-.044.003-.087.008-.13.01z"/></svg>