<svg viewBox="0 0 16 16" xmlns="http://www.w3.org/2000/svg" fill-rule="evenodd" clip-rule="evenodd" stroke-linejoin="round" stroke-miterlimit="1.414"><path d="M15.213 6.352c.187-.804.783-1.61.783-1.61h-2.674c-1.5-.97-3.32-1.483-5.34-1.483-2.093 0-3.984.525-5.475 1.5L0 4.762s.59.796.78 1.594a3.971 3.971 0 00-.778 2.362 4.002 4.002 0 007.129 2.502l.853 1.277.86-1.288c.386.49.885.89 1.47 1.16a4.008 4.008 0 004.899-6.018zm-2.113 5.38a3.17 3.17 0 01-3.772-1.245c-.133-.2-.25-.415-.335-.647a3.19 3.19 0 01-.172-.81 3.169 3.169 0 01.267-1.635 3.184 3.184 0 011.798-1.663 3.204 3.204 0 014.108 1.893 3.203 3.203 0 01-1.893 4.108zM6.656 10.51a3.2 3.2 0 01-2.648 1.408 3.204 3.204 0 01-3.2-3.197c0-1.766 1.437-3.2 3.2-3.2a3.202 3.202 0 013.198 3.2c0 .106-.02.208-.032.312a3.177 3.177 0 01-.518 1.476zm-4.68-1.83c0 1.093.89 1.98 1.98 1.98a1.98 1.98 0 10-1.979-1.98zm8.03 0a1.98 1.98 0 001.978 1.98 1.98 1.98 0 000-3.956c-1.09 0-1.98.886-1.98 1.976zm-7.347 0a1.297 1.297 0 112.597.003 1.297 1.297 0 01-2.599-.003zm8.027 0a1.296 1.296 0 112.593.003 1.296 1.296 0 01-2.594-.003zM7.983 3.958c1.44 0 2.74.26 3.887.775a3.965 3.965 0 00-3.515 2.323c-.204.44-.32.906-.355 1.377a4.008 4.008 0 00-3.912-3.718c1.147-.49 2.465-.757 3.895-.757z"/></svg>